<?xml version="1.0" encoding="utf-8"?>
<!-- Generator: Adobe Illustrator 24.1.0, SVG Export Plug-In . SVG Version: 6.00 Build 0)  -->
<svg version="1.1" id="Capa_1" xmlns="http://www.w3.org/2000/svg" xmlns:xlink="http://www.w3.org/1999/xlink" x="0px" y="0px"
	 viewBox="0 0 228.7 325.8" style="enable-background:new 0 0 228.7 325.8;" xml:space="preserve">
<style type="text/css">
	.st0{fill:#DDDDDD;}
	.st1{clip-path:url(#SVGID_2_);fill:#FFE512;}
	.st2{fill:#FFE512;}
</style>
<polygon class="st0" points="6.2,558.7 234.9,558.7 158.3,735.4 83.7,735.4 "/>
<image style="overflow:visible;" width="522" height="554" xlink:href="스크린샷 2020-06-27 오후 9.40.34.png"  transform="matrix(0.5062 0 0 0.5 -685.6673 195.7935)">
</image>
<g>
	<defs>
		<polygon id="SVGID_1_" points="6.2,558.7 234.9,558.7 158.3,735.4 83.7,735.4 		"/>
	</defs>
	<clipPath id="SVGID_2_">
		<use xlink:href="#SVGID_1_"  style="overflow:visible;"/>
	</clipPath>
	<polygon class="st1" points="6.2,616.1 234.9,616.1 166.5,743.6 75.5,740.9 	"/>
</g>
<polygon class="st2" points="228.7,325.8 0,325.8 76.6,149.1 151.2,149.1 "/>
<path class="st0" d="M114.3,101.9c28.2,0,51-22.8,51-51c0-28.2-22.8-51-51-51s-51,22.8-51,51C63.4,79.1,86.2,101.9,114.3,101.9z"/>
<path class="st0" d="M120.5,511.5c28.2,0,51-22.8,51-51c0-28.2-22.8-51-51-51s-51,22.8-51,51C69.6,488.7,92.4,511.5,120.5,511.5z"/>
</svg>
