<?xml version="1.0" encoding="utf-8"?>
<!-- Generator: Adobe Illustrator 24.1.0, SVG Export Plug-In . SVG Version: 6.00 Build 0)  -->
<svg version="1.1" id="Capa_1" xmlns="http://www.w3.org/2000/svg" xmlns:xlink="http://www.w3.org/1999/xlink" x="0px" y="0px"
	 viewBox="0 0 228.7 325.8" style="enable-background:new 0 0 228.7 325.8;" xml:space="preserve">
<style type="text/css">
	.st0{fill:#DDDDDD;}
	.st1{clip-path:url(#SVGID_2_);fill:#FFE512;}
	.st2{fill:#FFE512;}
</style>
<polygon class="st0" points="0,149.1 228.7,149.1 152.1,325.8 77.5,325.8 "/>
<image style="overflow:visible;" width="522" height="554" xlink:href="스크린샷 2020-06-27 오후 9.40.34.png"  transform="matrix(0.5062 0 0 0.5 -685.6673 195.7935)">
</image>
<g>
	<defs>
		<polygon id="SVGID_1_" points="0,149.1 228.7,149.1 152.1,325.8 77.5,325.8 		"/>
	</defs>
	<clipPath id="SVGID_2_">
		<use xlink:href="#SVGID_1_"  style="overflow:visible;"/>
	</clipPath>
	<polygon class="st1" points="0,206.5 228.7,206.5 160.3,334 69.3,331.3 	"/>
</g>
<polygon class="st2" points="689.2,386.8 460.5,386.8 537,210.1 611.6,210.1 "/>
<path class="st0" d="M574.8,162.9c28.2,0,51-22.8,51-51c0-28.2-22.8-51-51-51s-51,22.8-51,51C523.8,140,546.6,162.9,574.8,162.9z"/>
<path class="st0" d="M114.3,101.9c28.2,0,51-22.8,51-51c0-28.2-22.8-51-51-51s-51,22.8-51,51C63.4,79.1,86.2,101.9,114.3,101.9z"/>
</svg>
