<?xml version="1.0" encoding="utf-8"?>
<!-- Generator: Adobe Illustrator 24.1.0, SVG Export Plug-In . SVG Version: 6.00 Build 0)  -->
<svg version="1.1" id="레이어_1" xmlns="http://www.w3.org/2000/svg" xmlns:xlink="http://www.w3.org/1999/xlink" x="0px"
	 y="0px" viewBox="0 0 27 27" style="enable-background:new 0 0 27 27;" xml:space="preserve">
<path d="M26.2,3h-25C0.8,3,0.5,3.3,0.5,3.8v1.5C0.5,5.7,0.8,6,1.3,6h25C26.8,6,27,5.7,27,5.2V3.8C27,3.3,26.8,3,26.2,3z"/>
<path d="M26.2,11.9h-25c-0.4,0-0.8,0.3-0.8,0.8v1.5c0,0.4,0.3,0.8,0.8,0.8h25c0.4,0,0.8-0.3,0.8-0.8v-1.5
	C27,12.2,26.8,11.9,26.2,11.9z"/>
<path d="M26.2,21h-25c-0.4,0-0.8,0.3-0.8,0.8v1.5c0,0.4,0.3,0.8,0.8,0.8h25c0.4,0,0.8-0.3,0.8-0.8v-1.5C27,21.2,26.8,21,26.2,21z"/>
</svg>
